<svg version="1.1" xmlns="http://www.w3.org/2000/svg" xmlns:xlink="http://www.w3.org/1999/xlink" width="66" height="66"><defs/><g><path fill="rgb(0,0,0)" stroke="none" paint-order="stroke fill markers" fill-rule="evenodd" d=" M 32.92100954055786 1.3812469244003296 C 33.694254755973816 1.3812469244003296 34.3210254907608 2.0080344676971436 34.3210254907608 2.7812706232070923 C 34.3210254907608 3.554506778717041 33.694254755973816 4.181294322013855 32.92100954055786 4.181294322013855 C 32.14784574508667 4.181294322013855 31.521075010299683 3.554506778717041 31.521075010299683 2.7812706232070923 C 31.521075010299683 2.0080344676971436 32.14784574508667 1.3812469244003296 32.92100954055786 1.3812469244003296 Z M 32.92100954055786 61.58132719993591 C 33.694254755973816 61.58132719993591 34.3210254907608 62.20811474323273 34.3210254907608 62.98119443655014 C 34.3210254907608 63.75443059206009 33.694254755973816 64.3812181353569 32.92100954055786 64.3812181353569 C 32.14784574508667 64.3812181353569 31.521075010299683 63.75443059206009 31.521075010299683 62.98119443655014 C 31.521075010299683 62.20811474323273 32.14784574508667 61.58132719993591 32.92100954055786 61.58132719993591 Z M 41.07594978809357 2.457237422466278 C 41.82281494140625 2.6571961045265198 42.26598370075226 3.4249560832977295 42.065934896469116 4.171750128269196 C 41.86580467224121 4.918700635433197 41.098177433013916 5.361958026885986 40.35131227970123 5.161686420440674 C 39.60444712638855 4.961571276187897 39.16119694709778 4.193967759609222 39.361327171325684 3.447017252445221 C 39.561375975608826 2.700223207473755 40.329084634780884 2.2569658160209656 41.07594978809357 2.457237422466278 Z M 25.4951034784317 60.60594189167023 C 26.24188721179962 60.806057035923004 26.685137391090393 61.57366055250168 26.485007166862488 62.320454597473145 C 26.284876942634583 63.067405104637146 25.517168283462524 63.510662496089935 24.77030313014984 63.31054735183716 C 24.02351939678192 63.110275745391846 23.58026921749115 62.34267222881317 23.780399441719055 61.595878183841705 C 23.98052966594696 60.848927676677704 24.74823832511902 60.40582674741745 25.4951034784317 60.60594189167023 Z M 48.67454755306244 5.606977820396423 C 49.34414517879486 5.993595898151398 49.57350516319275 6.849757015705109 49.18692326545715 7.519415199756622 C 48.80034136772156 8.189073383808136 47.94412922859192 8.418446958065033 47.2745316028595 8.031985342502594 C 46.604933977127075 7.645210802555084 46.375492572784424 6.789049685001373 46.76207447052002 6.11939150094986 C 47.148656368255615 5.449889779090881 48.004868507385254 5.220359742641449 48.67454755306244 5.606977820396423 Z M 18.57448959350586 57.74174499511719 C 19.244168639183044 58.12836307287216 19.473528623580933 58.98452419042587 19.086946725845337 59.65418237447739 C 18.70036482810974 60.323684096336365 17.844152688980103 60.5532141327858 17.17455506324768 60.16659605503082 C 16.504876017570496 59.77997797727585 16.275516033172607 58.92381685972214 16.662097930908203 58.254158675670624 C 17.0486798286438 57.58450049161911 17.904891967773438 57.35512691736221 18.57448959350586 57.74174499511719 Z M 55.19897198677063 10.616271376609802 C 55.745625495910645 11.162950277328491 55.745625495910645 12.04946506023407 55.19897198677063 12.596143960952759 C 54.65223705768585 13.142822861671448 53.76581811904907 13.142822861671448 53.219083189964294 12.596143960952759 C 52.67226684093475 12.04946506023407 52.67226684093475 11.162950277328491 53.219083189964294 10.616271376609802 C 53.76581811904907 10.069436013698578 54.65223705768585 10.069436013698578 55.19897198677063 10.616271376609802 Z M 12.63115930557251 53.184001326560974 C 13.177812814712524 53.7308366894722 13.177812814712524 54.61719501018524 12.63115930557251 55.164030373096466 C 12.084424376487732 55.710709273815155 11.198005437850952 55.710709273815155 10.651189088821411 55.164030373096466 C 10.104454159736633 54.61719501018524 10.104454159736633 53.7308366894722 10.651189088821411 53.184001326560974 C 11.198005437850952 52.637322425842285 12.084424376487732 52.637322425842285 12.63115930557251 53.184001326560974 Z M 60.204588770866394 17.1434046626091 C 60.59117066860199 17.81290638446808 60.36172926425934 18.669223964214325 59.69213163852692 19.0558420419693 C 59.022534012794495 19.44230365753174 58.166321873664856 19.21293008327484 57.77973997592926 18.543428361415863 C 57.3930766582489 17.87377017736435 57.62251806259155 17.01760905981064 58.292115688323975 16.630990982055664 C 58.96179473400116 16.24437290430069 59.8180068731308 16.473746478557587 60.204588770866394 17.1434046626091 Z M 8.069851160049438 47.24328833818436 C 8.456433057785034 47.91294652223587 8.226991653442383 48.76910763978958 7.557394027709961 49.15588217973709 C 6.887796401977539 49.542500257492065 6.0315842628479 49.31297022104263 5.6449209451675415 48.64331203699112 C 5.258339047431946 47.97381031513214 5.487780451774597 47.117492735385895 6.157378077507019 46.73087465763092 C 6.826975703239441 46.344256579875946 7.68318784236908 46.57378661632538 8.069851160049438 47.24328833818436 Z M 63.35024833679199 24.74371212720871 C 63.5503785610199 25.490506172180176 63.107128381729126 26.25810968875885 62.360344648361206 26.458224833011627 C 61.61347949504852 26.65849643945694 60.845770835876465 26.21523904800415 60.64564061164856 25.468445003032684 C 60.445510387420654 24.721494495868683 60.888760566711426 23.953734517097473 61.63562572002411 23.75377583503723 C 62.38249087333679 23.553660690784454 63.15011811256409 23.99676162004471 63.35024833679199 24.74371212720871 Z M 5.201507925987244 40.32453018426895 C 5.401638150215149 41.07132422924042 4.958469390869141 41.83908420801163 4.2116042375564575 42.039199352264404 C 3.4647390842437744 42.23931449651718 2.6970304250717163 41.79605710506439 2.496900200843811 41.049263060092926 C 2.296851396560669 40.30246901512146 2.7400201559066772 39.53470903635025 3.4868853092193604 39.33459389209747 C 4.2337504625320435 39.134478747844696 5.001377701759338 39.577736139297485 5.201507925987244 40.32453018426895 Z M 64.42165338993073 32.89914745092392 C 64.42165338993073 33.67238360643387 63.79488265514374 34.29917114973068 63.02163743972778 34.29917114973068 C 62.24847364425659 34.29917114973068 61.621702909469604 33.67238360643387 61.621702909469604 32.89914745092392 C 61.621702909469604 32.12591129541397 62.24847364425659 31.499123752117157 63.02163743972778 31.499123752117157 C 63.79488265514374 31.499123752117157 64.42165338993073 32.12591129541397 64.42165338993073 32.89914745092392 Z M 4.221700310707092 32.89914745092392 C 4.221700310707092 33.67238360643387 3.594848155975342 34.29917114973068 2.8216843605041504 34.29917114973068 C 2.048520565032959 34.29917114973068 1.4216684103012085 33.67238360643387 1.4216684103012085 32.89914745092392 C 1.4216684103012085 32.12591129541397 2.048520565032959 31.499123752117157 2.8216843605041504 31.499123752117157 C 3.594848155975342 31.499123752117157 4.221700310707092 32.12591129541397 4.221700310707092 32.89914745092392 Z M 63.34577023983002 41.05411338806152 C 63.145721435546875 41.80090743303299 62.37801277637482 42.24416482448578 61.631147623062134 42.043893218040466 C 60.88428246974945 41.843934535980225 60.44111371040344 41.076174557209015 60.641162514686584 40.32938051223755 C 60.84129273891449 39.58243000507355 61.60900139808655 39.13917261362076 62.35586655139923 39.33944422006607 C 63.102731704711914 39.53955936431885 63.54590046405792 40.30716288089752 63.34577023983002 41.05411338806152 Z M 5.197111248970032 25.473138868808746 C 4.9969810247421265 26.219932913780212 4.229272365570068 26.663190305233 3.4824072122573853 26.463075160980225 C 2.735542058944702 26.262960016727448 2.2922918796539307 25.495200037956238 2.492503523826599 24.74840599298477 C 2.692552328109741 24.001611948013306 3.4602609872817993 23.558354556560516 4.207126140594482 23.758469700813293 C 4.953909873962402 23.95858484506607 5.397160053253174 24.72634482383728 5.197111248970032 25.473138868808746 Z M 60.19587683677673 48.65269976854324 C 59.80929493904114 49.32220149040222 58.9530827999115 49.551731526851654 58.28348517417908 49.16511344909668 C 57.613887548446655 48.778495371341705 57.384446144104004 47.922334253787994 57.7710280418396 47.25267606973648 C 58.157609939575195 46.58301788568497 59.013822078704834 46.35364431142807 59.68350112438202 46.74010592699051 C 60.35309875011444 47.12672400474548 60.58245873451233 47.98304158449173 60.19587683677673 48.65269976854324 Z M 8.061220645904541 18.55265963077545 C 7.674638748168945 19.22216135263443 6.8183451890945435 19.451691389083862 6.148747563362122 19.065073311328888 C 5.4791499376297 18.678455233573914 5.249708533287048 17.822137653827667 5.636290431022644 17.15263593196869 C 6.022953748703003 16.482977747917175 6.879165887832642 16.25360417366028 7.5487635135650635 16.640222251415253 C 8.218361139297485 17.026840329170227 8.447802543640137 17.883001446723938 8.061220645904541 18.55265963077545 Z M 55.18667757511139 55.177016735076904 C 54.640024065971375 55.72369563579559 53.75352370738983 55.72369563579559 53.20687019824982 55.177016735076904 C 52.66013526916504 54.630337834358215 52.66013526916504 53.74382305145264 53.20687019824982 53.19714415073395 C 53.75352370738983 52.65030878782272 54.640024065971375 52.65030878782272 55.18667757511139 53.19714415073395 C 55.73341250419617 53.74382305145264 55.73341250419617 54.630337834358215 55.18667757511139 55.177016735076904 Z M 12.618864893913269 12.609286785125732 C 12.072129964828491 13.155965685844421 11.185711026191711 13.155965685844421 10.639057517051697 12.609286785125732 C 10.092322587966919 12.062451422214508 10.092322587966919 11.176093101501465 10.639057517051697 10.62925773859024 C 11.185711026191711 10.082578837871552 12.072129964828491 10.082578837871552 12.618864893913269 10.62925773859024 C 13.165599822998047 11.176093101501465 13.165599822998047 12.062451422214508 12.618864893913269 12.609286785125732 Z M 48.65956628322601 60.18271166086197 C 47.98996865749359 60.56932973861694 47.13375651836395 60.33979970216751 46.74717462062836 59.670141518116 C 46.36059272289276 59.00063979625702 46.58995270729065 58.14432221651077 47.25955033302307 57.7577041387558 C 47.929229378700256 57.37124252319336 48.785441517829895 57.600616097450256 49.17202341556549 58.27027428150177 C 49.558605313301086 58.93977600336075 49.3292453289032 59.79593712091446 48.65956628322601 60.18271166086197 Z M 18.559589743614197 8.047944486141205 C 17.889992117881775 8.43456256389618 17.033779978752136 8.205032527446747 16.64719808101654 7.5355308055877686 C 16.26053476333618 6.865872621536255 16.489976167678833 6.009711503982544 17.159573793411255 5.62309342622757 C 17.829171419143677 5.236475348472595 18.68546497821808 5.465848922729492 19.072046875953674 6.135507106781006 C 19.45862877368927 6.8051652908325195 19.22918736934662 7.6613264083862305 18.559589743614197 8.047944486141205 Z M 41.059258699417114 63.328384041786194 C 40.31239354610443 63.52849918603897 39.544766306877136 63.08524179458618 39.34463608264923 62.33829128742218 C 39.144505858421326 61.591497242450714 39.5877560377121 60.82389372587204 40.33462119102478 60.62377858161926 C 41.0814049243927 60.423663437366486 41.84911358356476 60.86676436662674 42.049243807792664 61.61371487379074 C 42.24937403202057 62.36066538095474 41.8061238527298 63.12826889753342 41.059258699417114 63.328384041786194 Z M 25.47841238975525 5.179679572582245 C 24.731547236442566 5.379794716835022 23.963838577270508 4.936537325382233 23.763708353042603 4.189743280410767 C 23.563578128814697 3.442792773246765 24.00682830810547 2.675189256668091 24.753693461418152 2.4750741124153137 C 25.500558614730835 2.2749589681625366 26.26818585395813 2.718216359615326 26.468316078186035 3.465010404586792 C 26.66844630241394 4.211804449558258 26.22519612312317 4.979407966136932 25.47841238975525 5.179679572582245 Z"/></g></svg>