<svg version="1.1" xmlns="http://www.w3.org/2000/svg" xmlns:xlink="http://www.w3.org/1999/xlink" width="39" height="39"><defs/><g><path fill="rgb(0,0,0)" stroke="none" paint-order="stroke fill markers" fill-rule="evenodd" d=" M 7.046992778778076 23.635997772216797 C 9.358097910881042 21.357595324516296 13.105206608772278 21.357595324516296 15.416230320930481 23.635997772216797 C 17.727335453033447 25.914400219917297 17.727335453033447 29.60815966129303 15.416230320930481 31.88656210899353 C 13.105206608772278 34.16496455669403 9.358097910881042 34.16496455669403 7.046992778778076 31.88656210899353 C 4.73588764667511 29.60815966129303 4.73588764667511 25.914400219917297 7.046992778778076 23.635997772216797 Z M 23.78554928302765 7.134712636470795 C 26.096654415130615 4.856310188770294 29.843681693077087 4.856310188770294 32.154786825180054 7.134712636470795 C 34.46589195728302 9.413115084171295 34.46589195728302 13.107030987739563 32.154786825180054 15.385433435440063 C 29.843681693077087 17.66367942094803 26.096654415130615 17.66367942094803 23.78554928302765 15.385433435440063 C 21.474444150924683 13.107030987739563 21.474444150924683 9.413115084171295 23.78554928302765 7.134712636470795 Z M 13.686545014381409 31.170121729373932 C 13.686545014381409 27.94809579849243 16.33611285686493 25.336115956306458 19.604472279548645 25.336115956306458 C 22.872913122177124 25.336115956306458 25.522480964660645 27.94809579849243 25.522480964660645 31.170121729373932 C 25.522480964660645 34.39230412244797 22.872913122177124 37.00428396463394 19.604472279548645 37.00428396463394 C 16.33611285686493 37.00428396463394 13.686545014381409 34.39230412244797 13.686545014381409 31.170121729373932 Z M 13.686545014381409 7.833942174911499 C 13.686545014381409 4.611916244029999 16.33611285686493 1.9999364018440247 19.604472279548645 1.9999364018440247 C 22.872913122177124 1.9999364018440247 25.522480964660645 4.611916244029999 25.522480964660645 7.833942174911499 C 25.522480964660645 11.055968105793 22.872913122177124 13.667947947978973 19.604472279548645 13.667947947978973 C 16.33611285686493 13.667947947978973 13.686545014381409 11.055968105793 13.686545014381409 7.833942174911499 Z M 23.78554928302765 31.869351267814636 C 21.474444150924683 29.59110528230667 21.474444150924683 25.897189378738403 23.78554928302765 23.618786931037903 C 26.096654415130615 21.340540945529938 29.843681693077087 21.340540945529938 32.154786825180054 23.618786931037903 C 34.46589195728302 25.897189378738403 34.46589195728302 29.59110528230667 32.154786825180054 31.869351267814636 C 29.843681693077087 34.14775371551514 26.096654415130615 34.14775371551514 23.78554928302765 31.869351267814636 Z M 7.046992778778076 15.36822259426117 C 4.73588764667511 13.089820146560669 4.73588764667511 9.395904242992401 7.046992778778076 7.117501795291901 C 9.358097910881042 4.8392558097839355 13.105206608772278 4.8392558097839355 15.416230320930481 7.117501795291901 C 17.727335453033447 9.395904242992401 17.727335453033447 13.089820146560669 15.416230320930481 15.36822259426117 C 13.105206608772278 17.646468579769135 9.358097910881042 17.646468579769135 7.046992778778076 15.36822259426117 Z M 31.42811381816864 25.323911905288696 C 28.159754395484924 25.323911905288696 25.51010513305664 22.711932063102722 25.51010513305664 19.489906132221222 C 25.51010513305664 16.26788020133972 28.159754395484924 13.655900359153748 31.42811381816864 13.655900359153748 C 34.69655466079712 13.655900359153748 37.34604108333588 16.26788020133972 37.34604108333588 19.489906132221222 C 37.34604108333588 22.711932063102722 34.69655466079712 25.323911905288696 31.42811381816864 25.323911905288696 Z M 7.7562419176101685 25.323911905288696 C 4.487882494926453 25.323911905288696 1.8383146524429321 22.711932063102722 1.8383146524429321 19.489906132221222 C 1.8383146524429321 16.26788020133972 4.487882494926453 13.655900359153748 7.7562419176101685 13.655900359153748 C 11.024682760238647 13.655900359153748 13.674169182777405 16.26788020133972 13.674169182777405 19.489906132221222 C 13.674169182777405 22.711932063102722 11.024682760238647 25.323911905288696 7.7562419176101685 25.323911905288696 Z"/></g></svg>