<svg version="1.1" xmlns="http://www.w3.org/2000/svg" xmlns:xlink="http://www.w3.org/1999/xlink" width="64" height="63"><defs/><g><path fill="rgb(0,0,0)" stroke="none" paint-order="stroke fill markers" fill-rule="evenodd" d=" M 42.12284696102142 3.9323601126670837 C 42.12284696102142 3.9323601126670837 59.934518337249756 21.634805500507355 59.934518337249756 21.634805500507355 C 62.66705310344696 24.3505197763443 62.66705310344696 28.753678798675537 59.934518337249756 31.46939307451248 C 59.934518337249756 31.46939307451248 32.72226297855377 58.51482182741165 32.72226297855377 58.51482182741165 C 29.989728212356567 61.230536103248596 25.55942475795746 61.230536103248596 22.826889991760254 58.51482182741165 C 22.826889991760254 58.51482182741165 5.015218615531921 40.81237643957138 5.015218615531921 40.81237643957138 C 2.282683849334717 38.096662163734436 2.282683849334717 33.6935031414032 5.015218615531921 30.97763240337372 C 5.015218615531921 30.97763240337372 32.227473974227905 3.9323601126670837 32.227473974227905 3.9323601126670837 C 34.96000874042511 1.2166458368301392 39.39031219482422 1.2166458368301392 42.12284696102142 3.9323601126670837 Z M 33.10013294219971 37.177916169166565 C 33.10013294219971 37.177916169166565 33.25572645664215 54.041880667209625 33.25572645664215 54.041880667209625 C 33.29155123233795 57.92261242866516 30.15525496006012 61.03980869054794 26.250598669052124 61.00413531064987 C 26.250598669052124 61.00413531064987 9.282437920570374 60.84939420223236 9.282437920570374 60.84939420223236 C 5.377781629562378 60.813877284526825 2.183351516723633 57.63894647359848 2.147526741027832 53.758214712142944 C 2.147526741027832 53.758214712142944 1.991851806640625 36.894250214099884 1.991851806640625 36.894250214099884 C 1.9560270309448242 33.01351845264435 5.092323303222656 29.896322190761566 8.997061014175415 29.931995570659637 C 8.997061014175415 29.931995570659637 25.965140342712402 30.08673667907715 25.965140342712402 30.08673667907715 C 29.86987805366516 30.122253596782684 33.064308166503906 33.29718440771103 33.10013294219971 37.177916169166565 Z M 18.82737946510315 43.7657567858696 C 20.74009680747986 45.66677242517471 20.74009680747986 48.748921155929565 18.82737946510315 50.64993679523468 C 16.914580702781677 52.550952434539795 13.813376426696777 52.550952434539795 11.900577664375305 50.64993679523468 C 9.987778902053833 48.748921155929565 9.987778902053833 45.66677242517471 11.900577664375305 43.7657567858696 C 13.813376426696777 41.86458468437195 16.914580702781677 41.86458468437195 18.82737946510315 43.7657567858696 Z"/></g></svg>