<svg version="1.1" xmlns="http://www.w3.org/2000/svg" xmlns:xlink="http://www.w3.org/1999/xlink" width="29" height="21"><defs/><g><path fill="rgb(0,0,0)" stroke="none" paint-order="stroke fill markers" fill-rule="evenodd" d=" M 18.90180206298828 9.759946703910828 C 18.90180206298828 9.759946703910828 27.62814748287201 2.5162165760993958 27.62814748287201 2.5162165760993958 C 27.62814748287201 2.5162165760993958 27.62814748287201 19.9637850522995 27.62814748287201 19.9637850522995 C 27.62814748287201 19.9637850522995 18.90180206298828 9.759946703910828 18.90180206298828 9.759946703910828 Z M 1.4373867511749268 1.596062421798706 C 1.4373867511749268 1.596062421798706 27.562848687171936 1.596062421798706 27.562848687171936 1.596062421798706 C 27.562848687171936 1.596062421798706 14.500239849090576 12.364885747432709 14.500239849090576 12.364885747432709 C 14.500239849090576 12.364885747432709 1.4373867511749268 1.596062421798706 1.4373867511749268 1.596062421798706 Z M 14.496983051300049 13.41865861415863 C 14.496983051300049 13.41865861415863 18.32836139202118 10.244979500770569 18.32836139202118 10.244979500770569 C 18.32836139202118 10.244979500770569 26.652817964553833 19.973172783851624 26.652817964553833 19.973172783851624 C 26.652817964553833 19.973172783851624 2.3476617336273193 19.973172783851624 2.3476617336273193 19.973172783851624 C 2.3476617336273193 19.973172783851624 10.67179262638092 10.340734362602234 10.67179262638092 10.340734362602234 C 10.67179262638092 10.340734362602234 14.496983051300049 13.41865861415863 14.496983051300049 13.41865861415863 Z M 10.063911318778992 9.759946703910828 C 10.063911318778992 9.759946703910828 1.3375658988952637 2.5162165760993958 1.3375658988952637 2.5162165760993958 C 1.3375658988952637 2.5162165760993958 1.3375658988952637 19.9637850522995 1.3375658988952637 19.9637850522995 C 1.3375658988952637 19.9637850522995 10.063911318778992 9.759946703910828 10.063911318778992 9.759946703910828 Z"/></g></svg>