<svg version="1.1" xmlns="http://www.w3.org/2000/svg" xmlns:xlink="http://www.w3.org/1999/xlink" width="24" height="28"><defs/><g><path fill="rgb(0,0,0)" stroke="none" paint-order="stroke fill markers" fill-rule="evenodd" d=" M 5.617347836494446 2.6331911087036133 C 4.600901246070862 3.392032742500305 1.7226247787475586 7.508709490299225 7.10871696472168 16.836672484874725 C 12.782872915267944 26.667504966259003 18.182480812072754 26.258512794971466 19.265366077423096 25.592922627925873 C 19.265366077423096 25.592922627925873 15.439198613166809 19.148088455200195 15.439198613166809 19.148088455200195 C 14.535355806350708 19.679121136665344 13.773427963256836 18.80543625354767 12.366979837417603 16.906767547130585 C 12.343042373657227 16.89127779006958 9.622883439064026 12.329153180122375 9.61376440525055 12.2704798579216 C 9.051478266716003 11.044755041599274 8.597643494606018 9.791805803775787 9.543254733085632 9.234800398349762 C 9.543254733085632 9.234800398349762 5.617347836494446 2.6331911087036133 5.617347836494446 2.6331911087036133 Z M 21.599350214004517 24.235300183296204 C 22.01882576942444 23.987933456897736 22.11579692363739 23.472859919071198 21.89075219631195 23.090622782707214 C 21.89075219631195 23.090622782707214 21.891892075538635 23.08639830350876 21.891892075538635 23.08639830350876 C 21.891892075538635 23.08639830350876 18.904431462287903 18.065683007240295 18.902884483337402 18.063336074352264 C 18.666603803634644 17.66545271873474 18.156752109527588 17.54137820005417 17.75991129875183 17.772159934043884 C 17.75991129875183 17.772159934043884 15.92975378036499 18.85127967596054 15.92975378036499 18.85127967596054 C 15.92975378036499 18.85127967596054 19.765854477882385 25.313481152057648 19.765854477882385 25.313481152057648 C 19.765854477882385 25.313481152057648 21.59658193588257 24.238898813724518 21.59536063671112 24.236864805221558 C 21.59536063671112 24.236864805221558 21.599350214004517 24.235300183296204 21.599350214004517 24.235300183296204 Z M 11.874470591545105 7.8626269698143005 C 12.294108986854553 7.61432147026062 12.393359899520874 7.100969016551971 12.168559432029724 6.7215481996536255 C 12.168559432029724 6.7215481996536255 12.169943571090698 6.716384947299957 12.169943571090698 6.716384947299957 C 12.169943571090698 6.716384947299957 9.096503496170044 1.5496904253959656 9.095037937164307 1.5484387278556824 C 8.858512997627258 1.148521363735199 8.34784710407257 1.025855004787445 7.952390432357788 1.2564802765846252 C 7.952390432357788 1.2564802765846252 6.122070074081421 2.3363823294639587 6.122070074081421 2.3363823294639587 C 6.122070074081421 2.3363823294639587 10.043498873710632 8.941433787345886 10.043498873710632 8.941433787345886 C 10.043498873710632 8.941433787345886 11.872923612594604 7.868572533130646 11.87357497215271 7.865912675857544 C 11.87357497215271 7.865912675857544 11.874470591545105 7.8626269698143005 11.874470591545105 7.8626269698143005 Z"/></g></svg>